{
  "accessors": [
    {
      "bufferView": 2,
      "componentType": 5126,
      "count": 604,
      "max": [
        0.18438047170639038,
        0.6374802589416504,
        1.9064916372299194
      ],
      "min": [
        -0.18438050150871277,
        -0.6359965205192566,
        0.0033256656024605036
      ],
      "type": "VEC3"
    },
    {
      "bufferView": 2,
      "byteOffset": 7248,
      "componentType": 5126,
      "count": 604,
      "max": [
        1.0,
        0.9944220781326294,
        0.9999992251396179
      ],
      "min": [
        -1.0,
        -0.9999987483024597,
        -0.9999406933784485
      ],
      "type": "VEC3"
    },
    {
      "bufferView": 3,
      "componentType": 5126,
      "count": 604,
      "max": [
        0.9997506737709045,
        1.0,
        0.9999997615814209,
        1.0
      ],
      "min": [
        -0.9955472946166992,
        -1.0,
        -0.47413697838783264,
        1.0
      ],
      "type": "VEC4"
    },
    {
      "bufferView": 1,
      "componentType": 5126,
      "count": 604,
      "max": [
        0.9984818696975708,
        0.9959990382194519
      ],
      "min": [
        0.0007213086355477571,
        0.026996657252311707
      ],
      "type": "VEC2"
    },
    {
      "bufferView": 0,
      "componentType": 5125,
      "count": 2676,
      "type": "SCALAR"
    }
  ],
  "asset": {
    "extras": {
      "author": "KIFIR (https://sketchfab.com/kifir)",
      "license": "CC-BY-4.0 (http://creativecommons.org/licenses/by/4.0/)",
      "source": "https://sketchfab.com/3d-models/old-book-73db31780eef4940af7ad8af8868d684",
      "title": "Old book"
    },
    "generator": "Sketchfab-12.67.0",
    "version": "2.0"
  },
  "bufferViews": [
    {
      "buffer": 0,
      "byteLength": 10704,
      "name": "floatBufferViews",
      "target": 34963
    },
    {
      "buffer": 0,
      "byteLength": 4832,
      "byteOffset": 10704,
      "byteStride": 8,
      "name": "floatBufferViews",
      "target": 34962
    },
    {
      "buffer": 0,
      "byteLength": 14496,
      "byteOffset": 15536,
      "byteStride": 12,
      "name": "floatBufferViews",
      "target": 34962
    },
    {
      "buffer": 0,
      "byteLength": 9664,
      "byteOffset": 30032,
      "byteStride": 16,
      "name": "floatBufferViews",
      "target": 34962
    }
  ],
  "buffers": [
    {
      "byteLength": 39696,
      "uri": "scene.bin"
    }
  ],
  "images": [
    {
      "uri": "textures/book1_mtl_baseColor.jpeg"
    },
    {
      "uri": "textures/book1_mtl_normal.png"
    }
  ],
  "materials": [
    {
      "doubleSided": true,
      "name": "book1_mtl",
      "normalTexture": {
        "index": 1
      },
      "pbrMetallicRoughness": {
        "baseColorTexture": {
          "index": 0
        },
        "metallicFactor": 0.0,
        "roughnessFactor": 0.0
      }
    }
  ],
  "meshes": [
    {
      "name": "book1_book1_mtl_0",
      "primitives": [
        {
          "attributes": {
            "NORMAL": 1,
            "POSITION": 0,
            "TANGENT": 2,
            "TEXCOORD_0": 3
          },
          "indices": 4,
          "material": 0,
          "mode": 4
        }
      ]
    }
  ],
  "nodes": [
    {
      "children": [
        1
      ],
      "matrix": [
        1.0,
        0.0,
        0.0,
        0.0,
        0.0,
        2.220446049250313e-16,
        -1.0,
        0.0,
        0.0,
        1.0,
        2.220446049250313e-16,
        0.0,
        0.0,
        0.0,
        0.0,
        1.0
      ],
      "name": "Sketchfab_model"
    },
    {
      "children": [
        2
      ],
      "matrix": [
        1.0,
        0.0,
        0.0,
        0.0,
        0.0,
        0.0,
        1.0,
        0.0,
        0.0,
        -1.0,
        0.0,
        0.0,
        0.0,
        0.0,
        0.0,
        1.0
      ],
      "name": "book.fbx"
    },
    {
      "children": [
        3
      ],
      "name": "RootNode"
    },
    {
      "children": [
        4
      ],
      "matrix": [
        1.1924880749525357e-08,
        5.551115123125783e-17,
        1.0,
        0.0,
        1.0,
        1.1102230246251565e-16,
        -1.1924880694014206e-08,
        0.0,
        -5.551115123125783e-17,
        1.0,
        0.0,
        0.0,
        -1.2204750776290894,
        6.565572738647461,
        -2.4573307037353516,
        1.0
      ],
      "name": "book1"
    },
    {
      "mesh": 0,
      "name": "book1_book1_mtl_0"
    }
  ],
  "samplers": [
    {
      "magFilter": 9729,
      "minFilter": 9987,
      "wrapS": 10497,
      "wrapT": 10497
    }
  ],
  "scene": 0,
  "scenes": [
    {
      "name": "Sketchfab_Scene",
      "nodes": [
        0
      ]
    }
  ],
  "textures": [
    {
      "sampler": 0,
      "source": 0
    },
    {
      "sampler": 0,
      "source": 1
    }
  ]
}
